# xmcd CD database file
#
# Track frame offsets:
#	150
#	21410
#	40405
#	61932
#	79217
#	104922
#	123347
#	136380
#	155655
#	167012
#	183962
#
# Disc length: 2736 seconds
#
# Revision: 0
# Processed by: cddbd v1.5.2PL0 Copyright (c) Steve Scherf et al.
# Submitted via: CDex 1.70beta2
#
DISCID=990aae0b
DTITLE=Jerry Riopelle - In The Round
DYEAR=1999
DGENRE=Blues
TTITLE0=Easy Driver
TTITLE1=Back to Back
TTITLE2=You and I
TTITLE3=Walkin' On Water
TTITLE4=So Young
TTITLE5=Naomi's Song
TTITLE6=Beat Me Baby
TTITLE7=Red Ball Texas Flyer
TTITLE8=Lets Get Loaded (Like We Used To Do)
TTITLE9=Me And The Fox
TTITLE10=Blues On My Table
EXTD=YEAR: 1999
EXTT0=
EXTT1=
EXTT2=
EXTT3=
EXTT4=
EXTT5=
EXTT6=
EXTT7=
EXTT8=
EXTT9=
EXTT10=
PLAYORDER=
